<?xml version="1.0" encoding="utf-8"?>
<svg viewBox="0 0 500 500" xmlns="http://www.w3.org/2000/svg">
  <path d="M 268.694 213.979 L 275.93 210.294 L 275.93 171.659 C 275.93 171.659 264.469 177.861 248.136 186.733 C 247.653 186.999 247.154 187.266 246.673 187.533 L 240.601 190.834 C 240.252 191.018 239.887 191.217 239.52 191.418 L 215.117 204.692 L 202.411 211.596 C 196.14 215.029 189.903 218.431 183.931 221.699 L 204.124 184.464 L 209.947 195.17 L 235.428 181.313 L 204.157 123.635 L 136.776 247.896 C 136.127 249.079 124.317 270.873 124.317 270.873 L 157.251 270.873 L 222.339 237.657 L 230.704 233.388 L 256.518 220.198 L 268.694 213.979" style="fill:#100f0d;fill-opacity:1;fill-rule:nonzero;stroke:none" id="path30"/>
  <path d="M 255.848 228.259 L 230.051 241.449 L 245.236 269.413 L 278.171 269.413 L 255.848 228.259" style="fill:#100f0d;fill-opacity:1;fill-rule:nonzero;stroke:none" id="path28"/>
</svg>